<?xml version="1.0" encoding="UTF-8" standalone="no"?>
<!-- Created with Inkscape (http://www.inkscape.org/) -->

<svg
   xmlns:dc="http://purl.org/dc/elements/1.1/"
   xmlns:cc="http://creativecommons.org/ns#"
   xmlns:rdf="http://www.w3.org/1999/02/22-rdf-syntax-ns#"
   xmlns:svg="http://www.w3.org/2000/svg"
   xmlns="http://www.w3.org/2000/svg"
   xmlns:sodipodi="http://sodipodi.sourceforge.net/DTD/sodipodi-0.dtd"
   xmlns:inkscape="http://www.inkscape.org/namespaces/inkscape"
   width="64"
   height="64"
   viewBox="0 0 16.933333 16.933334"
   version="1.1"
   id="svg3936"
   sodipodi:docname="Twitter_Circle.svg"
   inkscape:version="0.92.4 (f8dce91, 2019-08-02)">
  <defs
     id="defs3930" />
  <sodipodi:namedview
     id="base"
     pagecolor="#ffffff"
     bordercolor="#666666"
     borderopacity="1.0"
     inkscape:pageopacity="0.0"
     inkscape:pageshadow="2"
     inkscape:zoom="9.9819907"
     inkscape:cx="36.981912"
     inkscape:cy="26.641738"
     inkscape:document-units="mm"
     inkscape:current-layer="layer1"
     showgrid="false"
     units="px"
     inkscape:snap-intersection-paths="false"
     inkscape:window-width="1920"
     inkscape:window-height="1031"
     inkscape:window-x="0"
     inkscape:window-y="0"
     inkscape:window-maximized="1" />
  <metadata
     id="metadata3933">
    <rdf:RDF>
      <cc:Work
         rdf:about="">
        <dc:format>image/svg+xml</dc:format>
        <dc:type
           rdf:resource="http://purl.org/dc/dcmitype/StillImage" />
        <dc:title />
      </cc:Work>
    </rdf:RDF>
  </metadata>
  <g
     inkscape:label="Layer 1"
     inkscape:groupmode="layer"
     id="layer1"
     transform="translate(0,-280.06665)">
    <g
       id="g3999"
       transform="matrix(0.03715642,0,0,0.03715642,0,280.06665)">
      <g
         id="g3942">
        <rect
           id="rect3938"
           height="455.73099"
           width="455.73099"
           style="fill:#50abf1"
           y="0"
           x="0"
           ry="0"
           rx="116.99174" />
        <path
           id="path3940"
           d="m 60.377,337.822 c 30.33,19.236 66.308,30.368 104.875,30.368 108.349,0 196.18,-87.841 196.18,-196.18 0,-2.705 -0.057,-5.39 -0.161,-8.067 3.919,-3.084 28.157,-22.511 34.098,-35 0,0 -19.683,8.18 -38.947,10.107 -0.038,0 -0.085,0.009 -0.123,0.009 0,0 0.038,-0.019 0.104,-0.066 1.775,-1.186 26.591,-18.079 29.951,-38.207 0,0 -13.922,7.431 -33.415,13.932 -3.227,1.072 -6.605,2.126 -10.088,3.103 -12.565,-13.41 -30.425,-21.78 -50.25,-21.78 -38.027,0 -68.841,30.805 -68.841,68.803 0,5.362 0.617,10.581 1.784,15.592 -5.314,-0.218 -86.237,-4.755 -141.289,-71.423 0,0 -32.902,44.917 19.607,91.105 0,0 -15.962,-0.636 -29.733,-8.864 0,0 -5.058,54.416 54.407,68.329 0,0 -11.701,4.432 -30.368,1.272 0,0 10.439,43.968 63.271,48.077 0,0 -41.777,37.74 -101.081,28.885 z"
           style="fill:#ffffff"
           inkscape:connector-curvature="0" />
      </g>
      <g
         id="g3944" />
      <g
         id="g3946" />
      <g
         id="g3948" />
      <g
         id="g3950" />
      <g
         id="g3952" />
      <g
         id="g3954" />
      <g
         id="g3956" />
      <g
         id="g3958" />
      <g
         id="g3960" />
      <g
         id="g3962" />
      <g
         id="g3964" />
      <g
         id="g3966" />
      <g
         id="g3968" />
      <g
         id="g3970" />
      <g
         id="g3972" />
    </g>
  </g>
  <g
     inkscape:groupmode="layer"
     id="layer2"
     inkscape:label="Layer 2">
    <path
       id="path3940-3"
       d="m 2.7725601,13.081423 c 1.1269542,0.714741 2.4637678,1.128366 3.8967795,1.128366 4.0258614,0 7.2893474,-3.263857 7.2893474,-7.2893457 0,-0.1005083 -0.0021,-0.2002732 -0.006,-0.2997409 0.145616,-0.1145904 1.046213,-0.8364282 1.266959,-1.3004747 0,0 -0.73135,0.3039395 -1.447131,0.3755399 -0.0014,0 -0.0032,3.334e-4 -0.0046,3.334e-4 0,0 0.0014,-7.064e-4 0.0039,-0.00245 0.06595,-0.044067 0.988026,-0.6717509 1.112872,-1.4196353 0,0 -0.517292,0.2761094 -1.241582,0.5176633 -0.119903,0.039833 -0.245418,0.078996 -0.374834,0.1152977 -0.466858,-0.4982702 -1.130472,-0.8092695 -1.867098,-0.8092695 -1.4129479,0 -2.5578857,1.1446035 -2.5578857,2.5564731 0,0.1992327 0.022926,0.3931522 0.066287,0.5793429 C 8.712125,7.2254232 5.7053161,7.0568445 3.659781,4.5797003 c 0,0 -1.2225206,1.6689548 0.7285259,3.3851355 0,0 -0.5930908,-0.023633 -1.1047718,-0.3293544 0,0 -0.1879372,2.0219034 2.0215692,2.5388596 0,0 -0.4347672,0.164677 -1.1283661,0.04726 0,0 0.3878759,1.633695 2.3509238,1.78637 0,0 -1.5522837,1.402284 -3.755808,1.073264 z"
       style="fill:#000000;stroke-width:0.03715642"
       inkscape:connector-curvature="0" />
  </g>
  <g
     inkscape:groupmode="layer"
     id="layer3"
     inkscape:label="Layer 3"
     sodipodi:insensitive="true">
    <path
       id="path3940-6"
       d="m 2.2433903,12.552253 c 1.126954,0.714741 2.463768,1.128366 3.89678,1.128366 4.0258607,0 7.2893457,-3.263857 7.2893457,-7.2893463 0,-0.1005083 -0.0021,-0.2002732 -0.006,-0.2997409 0.145616,-0.1145904 1.046213,-0.8364282 1.266959,-1.3004747 0,0 -0.73135,0.3039395 -1.447131,0.3755399 -0.0014,0 -0.0032,3.334e-4 -0.0046,3.334e-4 0,0 0.0014,-7.064e-4 0.0039,-0.00245 0.06595,-0.044067 0.988026,-0.6717509 1.112872,-1.4196353 0,0 -0.517292,0.2761093 -1.241582,0.5176632 -0.119903,0.039833 -0.245418,0.078996 -0.374834,0.1152978 -0.466858,-0.4982703 -1.130472,-0.8092695 -1.867098,-0.8092695 -1.4129467,0 -2.5578847,1.1446035 -2.5578847,2.5564731 0,0.1992327 0.02293,0.3931522 0.06629,0.5793429 -0.197449,-0.0081 -3.204258,-0.1766787 -5.249793,-2.653823 0,0 -1.222521,1.6689549 0.728526,3.3851356 0,0 -0.593091,-0.023633 -1.104772,-0.3293544 0,0 -0.187937,2.0219037 2.021569,2.5388609 0,0 -0.434767,0.1646772 -1.128366,0.047263 0,0 0.387876,1.6336933 2.350924,1.7863693 0,0 -1.552284,1.402283 -3.755808,1.073263 z"
       style="fill:#ffffff;stroke-width:0.03715642"
       inkscape:connector-curvature="0" />
  </g>
</svg>
