<svg xmlns="http://www.w3.org/2000/svg" viewBox="0 0 3450 36" width="3450" height="36"><g stroke="#000000" stroke-opacity="NaN" stroke-width="1.5"><path d="M58 1h22c1.591 0 3.118.633 4.243 1.757C85.367 3.882 86 5.409 86 7v22c0 1.591-.633 3.118-1.757 4.243C83.118 34.367 81.591 35 80 35H58c-1.591 0-3.118-.633-4.243-1.757C52.633 32.118 52 30.591 52 29V7c0-1.591.633-3.118 1.757-4.243C54.882 1.633 56.409 1 58 1" fill="#ff0000"/><path d="M64.699 12.142L74.951 18l-10.252 5.858V12.142z" fill="#ffffff"/></g><g stroke="#000000" stroke-opacity="NaN" stroke-width="1.5"><path d="M193.715 1h26.57c1.591 0 3.118.633 4.243 1.757 1.125 1.125 1.757 2.652 1.757 4.243v22c0 1.591-.632 3.118-1.757 4.243-1.125 1.124-2.652 1.757-4.243 1.757h-26.57c-1.591 0-3.118-.633-4.243-1.757-1.125-1.125-1.757-2.652-1.757-4.243V7c0-1.591.632-3.118 1.757-4.243C190.597 1.633 192.124 1 193.715 1" fill="#ff0000"/><path d="M202.699 12.142L212.951 18l-10.252 5.858V12.142z" fill="#ffffff"/></g><g stroke="#000000" stroke-opacity="NaN" stroke-width="1.5"><path d="M324.859 1h40.282c1.591 0 3.118.633 4.243 1.757 1.124 1.125 1.757 2.652 1.757 4.243v22c0 1.591-.633 3.118-1.757 4.243-1.125 1.124-2.652 1.757-4.243 1.757h-40.282c-1.591 0-3.118-.633-4.243-1.757-1.124-1.125-1.757-2.652-1.757-4.243V7c0-1.591.633-3.118 1.757-4.243C321.741 1.633 323.268 1 324.859 1" fill="#ff0000"/><path d="M340.699 12.142L350.951 18l-10.252 5.858V12.142z" fill="#ffffff"/></g><g stroke="#000000" stroke-opacity="NaN" stroke-width="1.5"><path d="M451.433 1h63.134c1.591 0 3.118.633 4.243 1.757 1.124 1.125 1.757 2.652 1.757 4.243v22c0 1.591-.633 3.118-1.757 4.243-1.125 1.124-2.652 1.757-4.243 1.757h-63.134c-1.591 0-3.118-.633-4.243-1.757-1.124-1.125-1.757-2.652-1.757-4.243V7c0-1.591.633-3.118 1.757-4.243C448.315 1.633 449.842 1 451.433 1" fill="#ff0000"/><path d="M478.699 12.142L488.951 18l-10.252 5.858V12.142z" fill="#ffffff"/></g><g stroke="#000000" stroke-opacity="NaN" stroke-width="1.5"><path d="M573.437 1h95.126c1.591 0 3.118.633 4.243 1.757 1.125 1.125 1.757 2.652 1.757 4.243v22c0 1.591-.632 3.118-1.757 4.243-1.125 1.124-2.652 1.757-4.243 1.757h-95.126c-1.591 0-3.118-.633-4.243-1.757-1.125-1.125-1.757-2.652-1.757-4.243V7c0-1.591.632-3.118 1.757-4.243C570.319 1.633 571.846 1 573.437 1" fill="#ff0000"/><path d="M616.699 12.142L626.951 18l-10.252 5.858V12.142z" fill="#ffffff"/></g><g stroke="#000000" stroke-opacity="NaN" stroke-width="1.5"><path d="M700.09 1h117.82c1.591 0 3.118.633 4.243 1.757 1.124 1.125 1.757 2.652 1.757 4.243v22c0 1.591-.633 3.118-1.757 4.243-1.125 1.124-2.652 1.757-4.243 1.757H700.09c-1.591 0-3.118-.633-4.243-1.757-1.124-1.125-1.757-2.652-1.757-4.243V7c0-1.591.633-3.118 1.757-4.243C696.972 1.633 698.499 1 700.09 1" fill="#ff0000"/><path d="M754.699 12.142L764.951 18l-10.252 5.858V12.142z" fill="#ffffff"/></g><g stroke="#000000" stroke-opacity="NaN" stroke-width="1.5"><path d="M846.37 1h101.26c1.591 0 3.118.633 4.243 1.757 1.125 1.125 1.757 2.652 1.757 4.243v22c0 1.591-.632 3.118-1.757 4.243-1.125 1.124-2.652 1.757-4.243 1.757H846.37c-1.591 0-3.118-.633-4.243-1.757-1.125-1.125-1.757-2.652-1.757-4.243V7c0-1.591.632-3.118 1.757-4.243C843.252 1.633 844.779 1 846.37 1" fill="#ff0000"/><path d="M892.699 12.142L902.951 18l-10.252 5.858V12.142z" fill="#ffffff"/></g><g stroke="#000000" stroke-opacity="NaN" stroke-width="1.5"><path d="M988.078 1h93.844c1.591 0 3.118.633 4.243 1.757 1.124 1.125 1.757 2.652 1.757 4.243v22c0 1.591-.633 3.118-1.757 4.243-1.125 1.124-2.652 1.757-4.243 1.757h-93.844c-1.591 0-3.118-.633-4.243-1.757-1.124-1.125-1.757-2.652-1.757-4.243V7c0-1.591.633-3.118 1.757-4.243C984.96 1.633 986.487 1 988.078 1" fill="#ff0000"/><path d="M1030.699 12.142L1040.951 18l-10.252 5.858V12.142z" fill="#ffffff"/></g><g stroke="#000000" stroke-opacity="NaN" stroke-width="1.5"><path d="M1125.217 1h95.566c1.591 0 3.118.633 4.243 1.757 1.124 1.125 1.757 2.652 1.757 4.243v22c0 1.591-.633 3.118-1.757 4.243-1.125 1.124-2.652 1.757-4.243 1.757h-95.566c-1.591 0-3.118-.633-4.243-1.757-1.124-1.125-1.757-2.652-1.757-4.243V7c0-1.591.633-3.118 1.757-4.243 1.125-1.124 2.652-1.757 4.243-1.757" fill="#ff0000"/><path d="M1168.699 12.142L1178.951 18l-10.252 5.858V12.142z" fill="#ffffff"/></g><g stroke="#000000" stroke-opacity="NaN" stroke-width="1.5"><path d="M1257.784 1h106.432c1.59 0 3.117.633 4.242 1.757 1.125 1.125 1.758 2.652 1.758 4.243v22c0 1.591-.633 3.118-1.758 4.243-1.125 1.124-2.652 1.757-4.242 1.757h-106.432c-1.59 0-3.117-.633-4.242-1.757-1.125-1.125-1.758-2.652-1.758-4.243V7c0-1.591.633-3.118 1.758-4.243 1.125-1.124 2.652-1.757 4.242-1.757" fill="#ff0000"/><path d="M1306.699 12.142L1316.951 18l-10.252 5.858V12.142z" fill="#ffffff"/></g><g stroke="#000000" stroke-opacity="NaN" stroke-width="1.5"><path d="M1387.67 1h122.66c1.591 0 3.118.633 4.243 1.757 1.124 1.125 1.757 2.652 1.757 4.243v22c0 1.591-.633 3.118-1.757 4.243-1.125 1.124-2.652 1.757-4.243 1.757h-122.66c-1.591 0-3.118-.633-4.243-1.757-1.124-1.125-1.757-2.652-1.757-4.243V7c0-1.591.633-3.118 1.757-4.243 1.125-1.124 2.652-1.757 4.243-1.757" fill="#ff0000"/><path d="M1444.699 12.142L1454.951 18l-10.252 5.858V12.142z" fill="#ffffff"/></g><g stroke="#000000" stroke-opacity="NaN" stroke-width="1.5"><path d="M1529.748 1h114.504c1.591 0 3.118.633 4.243 1.757 1.124 1.125 1.757 2.652 1.757 4.243v22c0 1.591-.633 3.118-1.757 4.243-1.125 1.124-2.652 1.757-4.243 1.757h-114.504c-1.591 0-3.118-.633-4.243-1.757-1.124-1.125-1.757-2.652-1.757-4.243V7c0-1.591.633-3.118 1.757-4.243 1.125-1.124 2.652-1.757 4.243-1.757" fill="#ff0000"/><path d="M1582.699 12.142L1592.951 18l-10.252 5.858V12.142z" fill="#ffffff"/></g><g stroke="#000000" stroke-opacity="NaN" stroke-width="1.5"><path d="M1667.256 1h115.488c1.591 0 3.118.633 4.243 1.757 1.124 1.125 1.757 2.652 1.757 4.243v22c0 1.591-.633 3.118-1.757 4.243-1.125 1.124-2.652 1.757-4.243 1.757h-115.488c-1.591 0-3.118-.633-4.243-1.757-1.124-1.125-1.757-2.652-1.757-4.243V7c0-1.591.633-3.118 1.757-4.243 1.125-1.124 2.652-1.757 4.243-1.757" fill="#ff0000"/><path d="M1720.699 12.142L1730.951 18l-10.252 5.858V12.142z" fill="#ffffff"/></g><g stroke="#000000" stroke-opacity="NaN" stroke-width="1.5"><path d="M1801.518 1h122.964c1.591 0 3.118.633 4.243 1.757 1.124 1.125 1.757 2.652 1.757 4.243v22c0 1.591-.633 3.118-1.757 4.243-1.125 1.124-2.652 1.757-4.243 1.757h-122.964c-1.591 0-3.118-.633-4.243-1.757-1.124-1.125-1.757-2.652-1.757-4.243V7c0-1.591.633-3.118 1.757-4.243C1798.4 1.633 1799.927 1 1801.518 1" fill="#ff0000"/><path d="M1858.699 12.142L1868.951 18l-10.252 5.858V12.142z" fill="#ffffff"/></g><g stroke="#000000" stroke-opacity="NaN" stroke-width="1.5"><path d="M1941.543 1h118.914c1.591 0 3.118.633 4.243 1.757 1.124 1.125 1.757 2.652 1.757 4.243v22c0 1.591-.633 3.118-1.757 4.243-1.125 1.124-2.652 1.757-4.243 1.757h-118.914c-1.591 0-3.118-.633-4.243-1.757-1.124-1.125-1.757-2.652-1.757-4.243V7c0-1.591.633-3.118 1.757-4.243 1.125-1.124 2.652-1.757 4.243-1.757" fill="#ff0000"/><path d="M1996.699 12.142L2006.951 18l-10.252 5.858V12.142z" fill="#ffffff"/></g><g stroke="#000000" stroke-opacity="NaN" stroke-width="1.5"><path d="M2077 1h124c1.591 0 3.118.633 4.243 1.757C2206.367 3.882 2207 5.409 2207 7v22c0 1.591-.633 3.118-1.757 4.243-1.125 1.124-2.652 1.757-4.243 1.757h-124c-1.591 0-3.118-.633-4.243-1.757-1.124-1.125-1.757-2.652-1.757-4.243V7c0-1.591.633-3.118 1.757-4.243C2073.882 1.633 2075.409 1 2077 1" fill="#ff0000"/><path d="M2134.699 18v-5.858L2144.951 18l-10.252 5.858V18m8.509 4.043" fill="#ffffff"/></g><g stroke="#000000" stroke-opacity="NaN" stroke-width="1.5"><path d="M2215 1h124c1.591 0 3.118.633 4.243 1.757C2344.367 3.882 2345 5.409 2345 7v22c0 1.591-.633 3.118-1.757 4.243-1.125 1.124-2.652 1.757-4.243 1.757h-124c-1.591 0-3.118-.633-4.243-1.757-1.124-1.125-1.757-2.652-1.757-4.243V7c0-1.591.633-3.118 1.757-4.243C2211.882 1.633 2213.409 1 2215 1" fill="#ff0000"/><path d="M2272.616 17.721l.026-2.791.016-2.808.016.025 9.931 5.691-9.885 5.715.033-2.781.047-2.758m6.263 3.369l-.271.168m2.581-9.244l.032-.07m-.197 9.806l.087.13" fill="#ffffff"/></g><g stroke="#000000" stroke-opacity="NaN" stroke-width="1.5"><path d="M2353 1h124c1.591 0 3.118.633 4.243 1.757C2482.367 3.882 2483 5.409 2483 7v22c0 1.591-.633 3.118-1.757 4.243-1.125 1.124-2.652 1.757-4.243 1.757h-124c-1.591 0-3.118-.633-4.243-1.757-1.124-1.125-1.757-2.652-1.757-4.243V7c0-1.591.633-3.118 1.757-4.243C2349.882 1.633 2351.409 1 2353 1" fill="#ff0000"/><path d="M2410.253 16.511l.14-2.193.085-2.282.084.134 8.54 4.967-8.29 5.094.173-2.141.251-2.018m5.827 3.311l-1.445.896m3.755-9.972l.173-.376m-.338 10.112l.462.694" fill="#ffffff"/></g><g stroke="#000000" stroke-opacity="NaN" stroke-width="1.5"><path d="M2491 1h124c1.591 0 3.118.633 4.243 1.757C2620.367 3.882 2621 5.409 2621 7v22c0 1.591-.633 3.118-1.757 4.243-1.125 1.124-2.652 1.757-4.243 1.757h-124c-1.591 0-3.118-.633-4.243-1.757-1.124-1.125-1.757-2.652-1.757-4.243V7c0-1.591.633-3.118 1.757-4.243C2487.882 1.633 2489.409 1 2491 1" fill="#ff0000"/><path d="M2547.535 14.114l.365-1.009.221-1.239.22.35 5.785 3.53-5.133 3.864.452-.872.655-.549m4.963 3.194l-3.773 2.339m6.083-11.415l.453-.981m-.618 10.717l1.207 1.811" fill="#ffffff"/></g><g stroke="#000000" stroke-opacity="NaN" stroke-width="1.5"><path d="M2629 1h124c1.591 0 3.118.633 4.243 1.757C2758.367 3.882 2759 5.409 2759 7v22c0 1.591-.633 3.118-1.757 4.243-1.125 1.124-2.652 1.757-4.243 1.757h-124c-1.591 0-3.118-.633-4.243-1.757-1.124-1.125-1.757-2.652-1.757-4.243V7c0-1.591.633-3.118 1.757-4.243C2625.882 1.633 2627.409 1 2629 1" fill="#ff0000"/><path d="M2684.928 12.092l.556-.011.335-.359.336.533 3.46 2.318-2.47 2.826.688.199.996.689m4.234 3.096l-5.736 3.556m8.046-12.632l.688-1.491m-.853 11.227l1.835 2.753" fill="#ffffff"/></g><g stroke="#000000" stroke-opacity="NaN" stroke-width="1.5"><path d="M2767 1h124c1.591 0 3.118.633 4.243 1.757C2896.367 3.882 2897 5.409 2897 7v22c0 1.591-.633 3.118-1.757 4.243-1.125 1.124-2.652 1.757-4.243 1.757h-124c-1.591 0-3.118-.633-4.243-1.757-1.124-1.125-1.757-2.652-1.757-4.243V7c0-1.591.633-3.118 1.757-4.243C2763.882 1.633 2765.409 1 2767 1" fill="#ff0000"/><path d="M2822.567 10.886l.669.585.404.165.404.642 2.073 1.596-.881 2.206.828.838 1.199 1.428m3.8 3.037l-6.907 4.282m9.217-13.358l.829-1.796m-.994 11.532l2.21 3.315" fill="#ffffff"/></g><g stroke="#000000" stroke-opacity="NaN" stroke-width="1.5"><path d="M2905 1h124c1.591 0 3.118.633 4.243 1.757C3034.367 3.882 3035 5.409 3035 7v22c0 1.591-.633 3.118-1.757 4.243-1.125 1.124-2.652 1.757-4.243 1.757h-124c-1.591 0-3.118-.633-4.243-1.757-1.124-1.125-1.757-2.652-1.757-4.243V7c0-1.591.633-3.118 1.757-4.243C2901.882 1.633 2903.409 1 2905 1" fill="#ff0000"/><path d="M2960.354 10.175l.735.937.445.474.444.705 1.257 1.171.055 1.841.91 1.214 1.319 1.863m3.544 3.003l-7.597 4.71m9.907-13.786l.912-1.975m-1.077 11.711l2.431 3.646" fill="#ffffff"/></g><g stroke="#000000" stroke-opacity="NaN" stroke-width="1.5"><path d="M3043 1h124c1.591 0 3.118.633 4.243 1.757C3172.367 3.882 3173 5.409 3173 7v22c0 1.591-.633 3.118-1.757 4.243-1.125 1.124-2.652 1.757-4.243 1.757h-124c-1.591 0-3.118-.633-4.243-1.757-1.124-1.125-1.757-2.652-1.757-4.243V7c0-1.591.633-3.118 1.757-4.243C3039.882 1.633 3041.409 1 3043 1" fill="#ff0000"/><path d="M3098.231 9.767l.774 1.138.468.652.468.742.787.926.593 1.632.957 1.43 1.388 2.113m3.397 2.983l-7.993 4.955m10.303-14.031l.959-2.078m-1.124 11.814l2.558 3.836" fill="#ffffff"/></g><g stroke="#000000" stroke-opacity="NaN" stroke-width="1.5"><path d="M3181 1h124c1.591 0 3.118.633 4.243 1.757C3310.367 3.882 3311 5.409 3311 7v22c0 1.591-.633 3.118-1.757 4.243-1.125 1.124-2.652 1.757-4.243 1.757h-124c-1.591 0-3.118-.633-4.243-1.757-1.124-1.125-1.757-2.652-1.757-4.243V7c0-1.591.633-3.118 1.757-4.243C3177.882 1.633 3179.409 1 3181 1" fill="#ff0000"/><path d="M3236.17 9.562l.793 1.239.479.741.48.761.551.803.863 1.527.982 1.538 1.422 2.239m3.323 2.973l-8.193 5.079m10.503-14.155l.983-2.13m-1.148 11.866l2.621 3.932" fill="#ffffff"/></g><g stroke="#000000" stroke-opacity="NaN" stroke-width="1.5"><path d="M3319 1h124c1.591 0 3.118.633 4.243 1.757C3448.367 3.882 3449 5.409 3449 7v22c0 1.591-.633 3.118-1.757 4.243-1.125 1.124-2.652 1.757-4.243 1.757h-124c-1.591 0-3.118-.633-4.243-1.757-1.124-1.125-1.757-2.652-1.757-4.243V7c0-1.591.633-3.118 1.757-4.243C3315.882 1.633 3317.409 1 3319 1" fill="#ff0000"/><path d="M3374.152 9.502l.799 1.269.483.767.482.766.483.767.942 1.496.988 1.57 1.433 2.276m3.301 2.97l-8.251 5.115m10.561-14.191l.99-2.145m-1.155 11.881l2.64 3.96" fill="#ffffff"/></g></svg>