<svg height="512pt" viewBox="0 0 512 512" width="512pt" xmlns="http://www.w3.org/2000/svg"><path d="m512 30.90625v450.1875c0 17.070312-13.835938 30.90625-30.90625 30.90625h-450.1875c-17.070312 0-30.90625-13.835938-30.90625-30.90625v-450.1875c0-17.070312 13.835938-30.90625 30.90625-30.90625h450.1875c17.070312 0 30.90625 13.835938 30.90625 30.90625zm0 0" fill="#f75820"/><path d="m64.222656 512h-33.316406c-17.070312 0-30.90625-13.835938-30.90625-30.90625v-450.1875c0-17.070312 13.835938-30.90625 30.90625-30.90625h33.316406c-17.070312 0-30.90625 13.835938-30.90625 30.90625v450.1875c0 17.070312 13.835938 30.90625 30.90625 30.90625zm0 0" fill="#f88224"/><path d="m512 30.90625v450.1875c0 17.070312-13.835938 30.90625-30.90625 30.90625h-199.03125c152.582031-175.789062 169.96875-420.992188 170.824219-512h28.207031c17.070312 0 30.90625 13.835938 30.90625 30.90625zm0 0" fill="#f93212"/><path d="m376.5625 108.441406c-2.308594 9.695313-12.023438 15.679688-21.707031 13.382813l-14.484375-3.441407-18.128906-4.304687-15.558594 42.925781-8.867188 24.5c-2.660156 7.335938-9.582031 11.886719-16.957031 11.886719-2.03125 0-4.113281-.339844-6.140625-1.082031-9.355469-3.386719-14.195312-13.722656-10.808594-23.085938l6.171875-17.027344 23.734375-65.511718c3.121094-8.609375 12.207032-13.515625 21.121094-11.402344l34.136719 8.109375 14.105469 3.347656c9.695312 2.304688 15.679687 12.019531 13.382812 21.703125zm0 0" fill="#b8daef"/><path d="m306.683594 157.003906-8.867188 24.5c-2.660156 7.335938-9.582031 11.886719-16.957031 11.886719-2.03125 0-4.113281-.339844-6.140625-1.082031-9.355469-3.386719-14.195312-13.722656-10.808594-23.085938l6.171875-17.027344c12.476563.699219 24.726563 2.316407 36.601563 4.808594zm0 0" fill="#a8c4dd"/><path d="m376.5625 108.441406c-2.308594 9.695313-12.023438 15.679688-21.707031 13.382813l-14.484375-3.441407c-.234375-1.96875-.359375-3.976562-.359375-6.015624 0-10.753907 3.347656-20.75 9.066406-28.980469l14.101563 3.347656c9.695312 2.308594 15.679687 12.023437 13.382812 21.707031zm0 0" fill="#a8c4dd"/><path d="m144.65625 222.152344c0 25.847656-20.941406 46.792968-46.789062 46.792968-10.023438 0-19.304688-3.152343-26.929688-8.519531-12.011719-8.46875-19.863281-22.449219-19.863281-38.273437 0-25.835938 20.945312-46.789063 46.792969-46.789063 12.476562 0 23.816406 4.882813 32.203124 12.847657 8.984376 8.527343 14.585938 20.582031 14.585938 33.941406zm0 0" fill="#deefff"/><path d="m144.65625 222.152344c0 25.847656-20.941406 46.792968-46.789062 46.792968-10.023438 0-19.304688-3.152343-26.929688-8.519531 8.953125-24.859375 26.148438-47.523437 50.511719-66.054687 2.800781-2.132813 5.675781-4.195313 8.621093-6.160156 8.984376 8.527343 14.585938 20.582031 14.585938 33.941406zm0 0" fill="#b8daef"/><path d="m460.925781 222.160156c0 15.824219-7.851562 29.800782-19.863281 38.269532-7.625 5.367187-16.90625 8.519531-26.929688 8.519531-.710937 0-1.421874-.019531-2.132812-.050781-3.730469-.164063-7.335938-.761719-10.785156-1.75-19.5625-5.617188-33.871094-23.625-33.871094-44.988282 0-13.363281 5.601562-25.417968 14.585938-33.945312 8.386718-7.964844 19.726562-12.847656 32.203124-12.847656 4.59375 0 9.035157.660156 13.226563 1.898437 2.378906.699219 4.667969 1.574219 6.871094 2.625 15.792969 7.519531 26.695312 23.621094 26.695312 42.269531zm0 0" fill="#deefff"/><path d="m460.925781 222.160156c0 15.824219-7.851562 29.800782-19.863281 38.269532-7.625 5.367187-16.90625 8.519531-26.929688 8.519531-.710937 0-1.421874-.019531-2.132812-.050781 9.363281-30.585938 16.617188-60.542969 22.230469-89.007813 15.792969 7.519531 26.695312 23.621094 26.695312 42.269531zm0 0" fill="#b8daef"/><path d="m441.0625 260.429688c-7.625 5.367187-16.90625 8.519531-26.929688 8.519531-.710937 0-1.421874-.019531-2.132812-.050781-3.730469-.164063-7.335938-.761719-10.785156-1.75-19.5625-5.617188-33.871094-23.625-33.871094-44.988282 0-13.363281 5.601562-25.417968 14.585938-33.945312 2.945312 1.96875 5.820312 4.027344 8.632812 6.160156 9.878906 7.519531 18.582031 15.71875 26.03125 24.464844 2.441406 2.875 4.761719 5.800781 6.925781 8.789062 7.539063 10.332032 13.421875 21.335938 17.542969 32.800782zm0 0" fill="#b8daef"/><path d="m441.0625 260.429688c-7.625 5.367187-16.90625 8.519531-26.929688 8.519531-.710937 0-1.421874-.019531-2.132812-.050781 4.265625-13.90625 8.085938-27.691407 11.515625-41.269532 7.542969 10.332032 13.425781 21.335938 17.546875 32.800782zm0 0" fill="#a8c4dd"/><path d="m434.828125 301.203125c0 49.304687-34.5 92.480469-86.144531 116.328125-8.972656 4.152344-18.46875 7.714844-28.390625 10.621094-19.953125 5.851562-41.628907 9.054687-64.292969 9.054687-98.765625 0-178.828125-60.894531-178.828125-136.003906s80.066406-136.003906 178.828125-136.003906c66.929688 0 125.28125 27.96875 155.9375 69.382812 2.515625 3.402344 4.851562 6.894531 6.976562 10.476563 10.230469 17.113281 15.914063 36.128906 15.914063 56.144531zm0 0" fill="#deefff"/><path d="m434.828125 301.203125c0 49.304687-34.5 92.480469-86.144531 116.328125 32.339844-56.667969 54.746094-116.050781 70.226562-172.472656 10.234375 17.113281 15.917969 36.128906 15.917969 56.144531zm0 0" fill="#b8daef"/><path d="m428.554688 112.367188c0 20.75-16.820313 37.574218-37.574219 37.574218-20.75 0-37.574219-16.824218-37.574219-37.574218s16.824219-37.574219 37.574219-37.574219c20.753906 0 37.574219 16.824219 37.574219 37.574219zm0 0" fill="#deefff"/><g fill="#f75820"><path d="m256 375.515625c-22.578125 0-44.253906-8.324219-61.027344-23.433594-6.339844-5.710937-6.851562-15.480469-1.136718-21.824219 5.710937-6.339843 15.480468-6.851562 21.820312-1.136718 11.089844 9.988281 25.414062 15.488281 40.34375 15.488281s29.253906-5.5 40.34375-15.488281c6.339844-5.714844 16.113281-5.203125 21.824219 1.136718 5.710937 6.34375 5.199219 16.113282-1.140625 21.824219-16.773438 15.109375-38.449219 23.433594-61.027344 23.433594zm0 0"/><path d="m210.195312 272.136719c0 13.222656-10.714843 23.9375-23.933593 23.9375s-23.9375-10.714844-23.9375-23.9375c0-13.21875 10.71875-23.933594 23.9375-23.933594s23.933593 10.714844 23.933593 23.933594zm0 0"/><path d="m349.675781 272.136719c0 13.222656-10.71875 23.9375-23.9375 23.9375s-23.933593-10.714844-23.933593-23.9375c0-13.21875 10.714843-23.933594 23.933593-23.933594s23.9375 10.714844 23.9375 23.933594zm0 0"/></g></svg>